# xmcd CD database file
#
# Track frame offsets:
#	150
#	18937
#	33394
#	44901
#	59892
#	79125
#	93638
#	112126
#	122961
#	133540
#	146903
#	168233
#	193287
#	203970
#
# Disc length: 2924 seconds
#
# Revision: 2
# Processed by: cddbd v1.5.2PL0 Copyright (c) Steve Scherf et al.
# Submitted via: jetAudio 7
#
DISCID=e00b6a0e
DTITLE=My Blueberry Nights - A Wong Kar Wai Film OST -REX
DYEAR=2007
DGENRE=Blues
TTITLE0=Norah Jones - The Story
TTITLE1=Cat Power - Living proof
TTITLE2=Ry Cooder - Ely Nevada
TTITLE3=Otis Redding - Try a little tenderness
TTITLE4=Ruth Brown - Looking back
TTITLE5=Ry Cooder - Long ride
TTITLE6=Mavis Staples - Eyes on the prize
TTITLE7=Chikara Tsuzuki - Yumeji's theme (harmonica version)
TTITLE8=Amos Lee - Skipping stone
TTITLE9=Ry Cooder - Busride
TTITLE10=Cassandra Wilson - Harvest moon
TTITLE11=Hello Stranger - Devil's highway
TTITLE12=Gustavo Santaolalla - Pajaros
TTITLE13=Cat Power - The greatest
EXTD=YEAR: 2007
EXTT0=
EXTT1=
EXTT2=
EXTT3=
EXTT4=
EXTT5=
EXTT6=
EXTT7=
EXTT8=
EXTT9=
EXTT10=
EXTT11=
EXTT12=
EXTT13=
PLAYORDER=
